Coordinates

Units are S.I. units (second, meters, Newtons, ...)
If the header above contains a line with 'inDegrees', this indicates whether rotational values are in degrees (yes) or radians (no).

inDegrees=no
nColumns=21
nRows=12
DataType=double
version=3
OpenSimVersion=4.6-2026-03-31-d6972f9e6
endheader
time	/jointset/ground_pelvis/pelvis_tilt/value	/jointset/ground_pelvis/pelvis_list/value	/jointset/ground_pelvis/pelvis_rotation/value	/jointset/ground_pelvis/pelvis_tx/value	/jointset/ground_pelvis/pelvis_ty/value	/jointset/ground_pelvis/pelvis_tz/value	/jointset/hip_r/hip_flexion_r/value	/jointset/hip_r/hip_adduction_r/value	/jointset/hip_r/hip_rotation_r/value	/jointset/walker_knee_r/knee_angle_r/value	/jointset/patellofemoral_r/knee_angle_r_beta/value	/jointset/ankle_r/ankle_angle_r/value	/jointset/subtalar_r/subtalar_angle_r/value	/jointset/hip_l/hip_flexion_l/value	/jointset/hip_l/hip_adduction_l/value	/jointset/hip_l/hip_rotation_l/value	/jointset/walker_knee_l/knee_angle_l/value	/jointset/patellofemoral_l/knee_angle_l_beta/value	/jointset/ankle_l/ankle_angle_l/value	/jointset/subtalar_l/subtalar_angle_l/value
147.496	-0.003519043496591238	-0.08560352331842973	1.491692362369701	0.8526442320271057	1.037862438688259	-1.013684169422758	-0.1596189256263271	0.01904705685622303	-0.02392381494726584	0.3302965437327949	0.3302965432605012	-0.1361134465312709	-0.4199839777421274	0.5598282291164578	-0.0429856092820367	0.03337580976729253	0.9497380984122357	0.9497380983619655	-0.2166187910364504	-0.5175247323488549
147.5	-0.008039430439119843	-0.08859308791573663	1.493887608633877	0.8526404133271165	1.039697643092527	-1.014841378328762	-0.1692127047263511	0.01256268355820542	-0.03214883300075129	0.3202001068287318	0.320200106460297	-0.164400555338469	-0.4112211876737735	0.5611947762474511	-0.03755863234811554	0.03044635517619386	0.9067464821593467	0.9067464820085636	-0.2079347317958622	-0.5155243369290368
147.504	-0.01216112056758629	-0.09179401016959626	1.495946786914218	0.8526211217989796	1.041405159064918	-1.016030106303702	-0.1780320804094464	0.006476917949045439	-0.04069064972900833	0.3111929727451896	0.3111929724859282	-0.1928177274417943	-0.4028416250708825	0.5622945259926658	-0.03251835810484175	0.02756021037281666	0.8635707674975551	0.8635707672237491	-0.198124341919719	-0.5116331209397239
147.508	-0.01585321831883557	-0.09521725216140065	1.49790004215062	0.8525821940263115	1.042973476430396	-1.017244591586383	-0.1860308781884291	0.0008160679653943151	-0.04951773445572515	0.3033924802858848	0.3033924801384121	-0.2212735931044278	-0.3950309437127826	0.5631912844924123	-0.02786935034051606	0.02478418334435303	0.8203900831073246	0.8203900826951087	-0.1871870961665026	-0.5058095077735471
147.512	-0.01909152984062645	-0.09886865293898058	1.499776168319065	0.8525198016341995	1.044391737570294	-1.018478246681996	-0.1931669535353336	-0.004401541141347618	-0.05858675919765045	0.2969212209371704	0.2969212209015183	-0.2496675023919909	-0.3879765499968366	0.5639440576526041	-0.02361096575937054	0.02217939992363847	0.7773931083198488	0.7773931077636034	-0.1751560770168136	-0.4980611983258125
147.516	-0.02185870489090215	-0.1027480159323634	1.501602154363838	0.8524305360836476	1.045649876083092	-1.019723692771099	-0.1994036917852751	-0.009165531037492163	-0.0678420616536459	0.2919048088934972	0.291904808967165	-0.2778883949773692	-0.3818630401533569	0.5646057975914536	-0.01973788425489295	0.0198000336726754	0.7347770608353945	0.7347770601409234	-0.1620982864623302	-0.4884475471738132
147.52	-0.02414416895080511	-0.1068482211449711	1.503402737121139	0.8523114889609739	1.046738767770055	-1.020972828681151	-0.2047116186812818	-0.01347310417325289	-0.07721546147819587	0.2884692619466826	0.2884692621245157	-0.3058142574966399	-0.3768673373698359	0.5652221840245334	-0.01624073312543095	0.01769217217628151	0.6927464846741531	0.6927464838589861	-0.1481138834643183	-0.4770803307353714
147.524	-0.02594387889740114	-0.1111543007701661	1.505199972273988	0.8521603238721275	1.0476503952204	-1.022216935101386	-0.2090701622260462	-0.01732840753654139	-0.08662652967620336	0.2867380722046965	0.2867380724787801	-0.3333123088740749	-0.3731536860534338	0.5658303815549879	-0.01310675044535839	0.01589288723803992	0.6515118585579056	0.6515118576500614	-0.1333342682288834	-0.4641227332993579
147.528	-0.02725998979003427	-0.115642549059114	1.507012850481483	0.8519753350877196	1.048378016297794	-1.023446814781581	-0.2124694597385474	-0.02074173487485446	-0.09598343152262472	0.2868290683012841	0.2868290686612213	-0.3602400089219902	-0.370868686906788	0.5664578605484034	-0.01032039130386483	0.01442955667477027	0.6112880522803942	0.6112880513157719	-0.1179189982342426	-0.4497864273330204
147.532	-0.0281005881982901	-0.1202797597829563	1.50885699774527	0.8517554897884719	1.048916325196754	-1.024652971515342	-0.2149120938880767	-0.02372873969201013	-0.1051844692281674	0.2888511441678949	0.2888511446016198	-0.3864469822891646	-0.370136620045593	0.5671213848550732	-0.007863728754467305	0.01331942933246821	0.5722926404949725	0.5722926395138954	-0.1020515157604071	-0.4343266071499632
147.536	-0.02847957762524893	-0.1250226713997232	1.510744486983695	0.8515004518372182	1.049261595051562	-1.025825825575102	-0.2164146421641514	-0.02630977303327109	-0.114120379872059	0.2929009657188009	0.2929009662136424	-0.4117778572654653	-0.371055270755416	0.5678262551117855	-0.005716578579599172	0.01256943931106608	0.5347440862477844	0.5347440852913454	-0.08593376142528955	-0.4180350465247906
147.54	-0.02841662504676855	-0.1298177484512794	1.512683760557118	0.8512105842874859	1.049411785201958	-1.026955950949999	-0.2170088237625635	-0.02850930154099367	-0.1226773245349886	0.2990598889818348	0.2990598895253254	-0.4360758108452775	-0.3736923375499752	0.5685659654246901	-0.003856451880690687	0.0121763598237838	0.4988598434802859	0.4988598425870683	-0.06977998806810917	-0.4012316911288635
